HIERARCHY
ROOT Hips
{
	OFFSET 0.00000 0.00000 0.00000
	CHANNELS 6 Xposition Yposition Zposition Zrotation Yrotation Xrotation 
	JOINT LHipJoint
	{
		OFFSET 0 0 0
		CHANNELS 3 Zrotation Yrotation Xrotation
		JOINT LeftHip
		{
			OFFSET 1.84395 -1.68683 0.74144
			CHANNELS 3 Zrotation Yrotation Xrotation
			JOINT LeftKnee
			{
				OFFSET 2.27037 -6.23779 0.00000
				CHANNELS 3 Zrotation Yrotation Xrotation
				JOINT LeftAnkle
				{
					OFFSET 2.56918 -7.05877 0.00000
					CHANNELS 3 Zrotation Yrotation Xrotation
					JOINT LeftToe
					{
						OFFSET 0.22276 -0.61202 1.71784
						CHANNELS 3 Zrotation Yrotation Xrotation
						End Site
						{
							OFFSET 0.00000 -0.00000 0.91613
						}
					}
				}
			}
		}
	}
	JOINT RHipJoint
	{
		OFFSET 0 0 0
		CHANNELS 3 Zrotation Yrotation Xrotation
		JOINT RightHip
		{
			OFFSET -1.76833 -1.68684 0.74144
			CHANNELS 3 Zrotation Yrotation Xrotation
			JOINT RightKnee
			{
				OFFSET -2.49360 -6.85110 0.00000
				CHANNELS 3 Zrotation Yrotation Xrotation
				JOINT RightAnkle
				{
					OFFSET -2.55538 -7.02085 0.00000
					CHANNELS 3 Zrotation Yrotation Xrotation
					JOINT RightToe
					{
						OFFSET -0.21516 -0.59115 1.68050
						CHANNELS 3 Zrotation Yrotation Xrotation
						End Site
						{
							OFFSET -0.00000 -0.00000 0.89604
						}
					}
				}
			}
		}
	}
	JOINT lowerback
	{
		OFFSET 0 0 0
		CHANNELS 3 Zrotation Yrotation Xrotation
		JOINT Chest
		{
			OFFSET 0.06382 1.72312 -0.19613
			CHANNELS 3 Zrotation Yrotation Xrotation
			JOINT Chest2
			{
				OFFSET -0.00055 1.73507 0.23859
				CHANNELS 3 Zrotation Yrotation Xrotation
				JOINT lowerneck
				{
					OFFSET 0 0 0
					CHANNELS 3 Zrotation Yrotation Xrotation
					JOINT Neck
					{
						OFFSET 0.03638 1.65562 0.09633
						CHANNELS 3 Zrotation Yrotation Xrotation
						JOINT Head
						{
							OFFSET 0.06388 1.62807 -0.32386
							CHANNELS 3 Zrotation Yrotation Xrotation
							End Site
							{
								OFFSET 0.00995 1.67644 -0.12021
							}
						}
					}
				}
				JOINT LeftCollar
				{
					OFFSET 0 0 0
					CHANNELS 3 Zrotation Yrotation Xrotation
					JOINT LeftShoulder
					{
						OFFSET 3.09648 1.42991 0.28122
CHANNELS 3 Zrotation Xrotation Yrotation
						JOINT LeftElbow
						{
OFFSET 0 -5.118780 -0.000000
CHANNELS 3 Zrotation Xrotation Yrotation
							JOINT LeftWrist
							{
OFFSET 0 -3.599710 0.000000
CHANNELS 3 Zrotation Xrotation Yrotation
								JOINT lhand
								{
									OFFSET 0 0 0
CHANNELS 3 Zrotation Xrotation Yrotation
									JOINT LFingers
									{
OFFSET 0 -0.628770 0.000000
CHANNELS 3 Zrotation Xrotation Yrotation
										End Site
										{
OFFSET 0 -0.506930 0.000000
										}
									}
								}
								JOINT LThumb
								{
OFFSET 0 0.000000 0.000000
CHANNELS 3 Zrotation Xrotation Yrotation
									End Site
									{
OFFSET 0 -0.514670 0.514670
									}
								}
							}
						}
					}
				}
				JOINT RightCollar
				{
					OFFSET 0 0 0
					CHANNELS 3 Zrotation Yrotation Xrotation
					JOINT RightShoulder
					{
						OFFSET -3.33565 1.14597 0.05047
CHANNELS 3 Zrotation Xrotation Yrotation
						JOINT RightElbow
						{
OFFSET 0 -5.490200 0.000000
CHANNELS 3 Zrotation Xrotation Yrotation
							JOINT RightWrist
							{
OFFSET 0 -3.206590 -0.000000
CHANNELS 3 Zrotation Xrotation Yrotation
								JOINT rhand
								{
									OFFSET 0 0 0
CHANNELS 3 Zrotation Xrotation Yrotation
									JOINT RFingers
									{
OFFSET 0 -0.691880 0.000000
CHANNELS 3 Zrotation Xrotation Yrotation
										End Site
										{
OFFSET 0 -0.557810 0.000000
										}
									}
								}
								JOINT RThumb
								{
OFFSET 0 0.000000 0.000000
CHANNELS 3 Zrotation Xrotation Yrotation
									End Site
									{
OFFSET 0 -0.566330 0.566330
									}
								}
							}
						}
					}
				}
			}
		}
	}
}
MOTION
Frames: 6
Frame Time: 0.008333333333333333
0.014063 17.789579 7.920857 -8.932912 2.416040 21.779661 0.000000 0.000000 0.000000 0.157884 -50.151670 -0.233689 0.012443 -0.720090 -1.978863 160.898921 -61.073466 7.063324 0.815481 5.762300 16.096271 0.000000 0.000000 0.000000 19.866917 25.702970 -16.008882 -0.174892 -2.693597 7.426849 0.935593 -20.063832 -19.259917 -0.012451 -0.717710 1.972360 4.478361 1.548188 18.405933 2.675744 2.893663 6.561006 -0.295215 1.424617 -3.161899 -0.629951 -3.038836 1.004404 23.116150 -6.467097 11.944600 7.161169 -2.326482 4.124385 0.000000 0.000000 0.000000 132.091263 -32.953884 40.319582 140.937197 -47.503695 102.254660 8.865214 -71.825382 11.047014 0.000000 0.000000 0.000000 -7.125000 0.000000 0.000000 -12.797987 18.947368 -8.155287 0.000000 0.000000 0.000000 -50.092863 25.687768 77.962767 -137.599369 -49.429554 -99.755629 92.075118 57.070964 -12.993303 0.000000 0.000000 0.000000 7.125000 0.000000 0.000000 48.904830 28.171730 34.296765
-0.020559 17.803872 7.912564 -9.182688 2.066547 21.738755 0.000000 0.000000 0.000000 0.495535 -49.420360 -0.389841 0.011179 -0.683026 -1.876996 161.524970 -60.815406 5.771316 0.902178 6.053228 16.938899 0.000000 0.000000 0.000000 20.353014 25.727911 -15.777014 -0.161083 -2.585618 7.127267 0.924248 -19.798692 -18.797606 -0.016990 -0.839294 2.306628 4.036274 1.585383 18.589825 2.403192 2.856386 6.660557 -0.331471 1.405239 -3.162205 -1.209930 -2.819169 0.331643 23.026051 -6.285983 12.420416 7.240567 -2.190187 4.374386 0.000000 0.000000 0.000000 138.610886 -33.581461 43.691510 139.442431 -48.396769 101.144891 9.194207 -70.525371 9.780536 0.000000 0.000000 0.000000 -7.125000 0.000000 0.000000 -12.642710 20.183247 -7.691519 0.000000 0.000000 0.000000 -51.001548 24.724527 78.230854 -138.437988 -48.968412 -100.390401 90.937839 54.496035 -11.284096 0.000000 0.000000 0.000000 7.125000 0.000000 0.000000 45.451022 22.287837 40.070207
-0.028281 17.801979 7.914284 -10.948382 2.403328 21.584944 0.000000 0.000000 0.000000 1.760655 -51.740869 1.757134 0.016594 -0.830500 -2.282465 158.272118 -64.062833 5.398634 1.056736 6.530421 18.333483 0.000000 0.000000 0.000000 22.806370 24.996112 -15.462681 -0.140304 -2.414390 6.652284 0.827501 -18.842627 -17.958456 -0.006808 -0.532241 1.462576 4.929020 1.653724 19.009721 3.285740 3.166142 6.713899 0.025529 1.550291 -3.311551 -0.822585 -2.883709 0.028911 22.890769 -6.325972 12.068686 7.109862 -2.206940 4.317851 0.000000 0.000000 0.000000 140.588930 -33.342209 44.605744 140.514985 -47.760982 101.942675 10.594479 -71.564166 9.723554 0.000000 0.000000 0.000000 -7.125000 0.000000 0.000000 -11.658908 20.184182 -7.065711 0.000000 0.000000 0.000000 -52.204357 26.164748 78.283223 -139.759221 -48.211624 -101.381370 90.823709 54.446308 -11.685767 0.000000 0.000000 0.000000 7.125000 0.000000 0.000000 45.674296 22.337901 40.183016
-0.037647 17.803896 7.946854 -10.082452 1.941378 22.400451 0.000000 0.000000 0.000000 0.257881 -56.744448 3.955018 0.013649 -0.754785 -2.074409 153.584307 -69.929535 -0.538510 1.709156 8.231528 23.419842 0.000000 0.000000 0.000000 21.193285 25.258352 -16.536623 -0.148402 -2.482469 6.841054 0.768441 -18.451134 -17.932531 -0.012801 -0.730332 2.007087 3.611550 1.958988 18.483213 3.809816 3.334670 6.565987 1.298666 1.619084 -3.304970 -0.195470 -3.224544 0.165377 22.813228 -6.735403 11.740814 6.949259 -2.415876 4.232842 0.000000 0.000000 0.000000 135.750359 -32.877684 42.753051 141.617842 -47.081560 102.755104 11.746053 -72.157012 10.112819 0.000000 0.000000 0.000000 -7.125000 0.000000 0.000000 -10.827367 19.745392 -6.651795 0.000000 0.000000 0.000000 -52.293146 29.016766 78.012046 -140.739213 -47.625651 -102.108770 91.722016 57.156160 -13.623921 0.000000 0.000000 0.000000 7.125000 0.000000 0.000000 49.118137 27.682545 34.847777
-0.027307 17.778481 7.948340 -10.823456 2.459179 22.012818 0.000000 0.000000 0.000000 1.098347 -55.305918 3.553206 0.014575 -0.778085 -2.138406 155.114928 -68.213461 0.982228 1.514818 7.770723 22.020758 0.000000 0.000000 0.000000 22.440683 24.757173 -16.212714 -0.154666 -2.533935 6.983675 0.727427 -18.150576 -17.864579 -0.010435 -0.656372 1.803804 5.740904 1.473055 19.062610 4.135653 3.128609 6.654769 0.478728 1.525655 -3.403019 0.543855 -3.669257 0.721231 22.937128 -7.112092 10.644361 6.836184 -2.692177 3.837465 0.000000 0.000000 0.000000 129.522389 -32.375315 39.387403 142.270071 -46.665878 103.231152 10.820552 -72.911492 10.609828 0.000000 0.000000 0.000000 -7.125000 0.000000 0.000000 -11.455991 19.292385 -7.171777 0.000000 0.000000 0.000000 -51.501364 30.385652 77.337644 -140.785520 -47.597509 -102.142967 90.697332 51.198147 -12.558709 0.000000 0.000000 0.000000 7.125000 0.000000 0.000000 46.185605 23.299134 39.835320
-0.052932 17.778170 7.960979 -10.475244 2.059878 22.125211 0.000000 0.000000 0.000000 1.139081 -53.750905 2.611953 0.015590 -0.805684 -2.214267 156.312617 -66.727116 2.472904 1.344224 7.338735 20.723508 0.000000 0.000000 0.000000 22.040248 25.553173 -16.091483 -0.161696 -2.590692 7.141210 0.795231 -18.750749 -18.221093 -0.010165 -0.649351 1.784381 5.999912 1.163234 18.908271 3.714439 2.730190 6.734437 -0.024678 1.342193 -3.213237 -0.416694 -3.853247 1.038362 23.165594 -7.304512 10.403805 7.075561 -2.856867 3.764726 0.000000 0.000000 0.000000 128.837967 -32.535877 37.525259 142.489353 -46.523892 103.390426 11.924590 -73.395948 11.143737 0.000000 0.000000 0.000000 -7.125000 0.000000 0.000000 -10.661939 18.703576 -6.798706 0.000000 0.000000 0.000000 -50.499061 29.315341 77.076987 -140.109041 -48.005060 -101.641807 90.692082 39.578490 -10.589426 0.000000 0.000000 0.000000 7.125000 0.000000 0.000000 45.723696 22.486600 40.371261
